<?xml version="1.0" standalone="no"?>
<svg xmlns:xlink="http://www.w3.org/1999/xlink" id="wave" style="transform:rotate(0deg); transition: 0.3s" viewBox="0 0 1440 480" version="1.1" xmlns="http://www.w3.org/2000/svg"><defs><linearGradient id="sw-gradient-0" x1="0" x2="0" y1="1" y2="0"><stop stop-color="rgba(123, 0, 129, 1)" offset="0%"/><stop stop-color="rgba(84, 245, 252, 0.15458683473389356)" offset="100%"/></linearGradient></defs><path style="transform:translate(0, 0px); opacity:1" fill="url(#sw-gradient-0)" d="M0,144L80,176C160,208,320,272,480,280C640,288,800,240,960,192C1120,144,1280,96,1440,128C1600,160,1760,272,1920,272C2080,272,2240,160,2400,168C2560,176,2720,304,2880,320C3040,336,3200,240,3360,200C3520,160,3680,176,3840,216C4000,256,4160,320,4320,360C4480,400,4640,416,4800,416C4960,416,5120,400,5280,328C5440,256,5600,128,5760,104C5920,80,6080,160,6240,184C6400,208,6560,176,6720,192C6880,208,7040,272,7200,272C7360,272,7520,208,7680,192C7840,176,8000,208,8160,224C8320,240,8480,240,8640,248C8800,256,8960,272,9120,280C9280,288,9440,288,9600,240C9760,192,9920,96,10080,80C10240,64,10400,128,10560,176C10720,224,10880,256,11040,248C11200,240,11360,192,11440,168L11520,144L11520,480L11440,480C11360,480,11200,480,11040,480C10880,480,10720,480,10560,480C10400,480,10240,480,10080,480C9920,480,9760,480,9600,480C9440,480,9280,480,9120,480C8960,480,8800,480,8640,480C8480,480,8320,480,8160,480C8000,480,7840,480,7680,480C7520,480,7360,480,7200,480C7040,480,6880,480,6720,480C6560,480,6400,480,6240,480C6080,480,5920,480,5760,480C5600,480,5440,480,5280,480C5120,480,4960,480,4800,480C4640,480,4480,480,4320,480C4160,480,4000,480,3840,480C3680,480,3520,480,3360,480C3200,480,3040,480,2880,480C2720,480,2560,480,2400,480C2240,480,2080,480,1920,480C1760,480,1600,480,1440,480C1280,480,1120,480,960,480C800,480,640,480,480,480C320,480,160,480,80,480L0,480Z"/></svg>